<?xml version="1.0" encoding="UTF-8"?>
<svg width="62px" height="37px" viewBox="0 0 62 37" version="1.1" xmlns="http://www.w3.org/2000/svg" xmlns:xlink="http://www.w3.org/1999/xlink">
    <!-- Generator: Sketch 3.7.2 (28276) - http://www.bohemiancoding.com/sketch -->
    <title>Shape</title>
    <desc>Created with Sketch.</desc>
    <defs></defs>
    <g id="Page-1" stroke="none" stroke-width="1" fill="none" fill-rule="evenodd">
        <g id="noun_weather_1127143" fill="#8CAAC1">
            <g id="Group">
                <g id="Shape">
                    <path d="M37.0576179,34 L54,34 C54.8899185,34 55.7542424,33.8054671 56.5440173,33.4352763 C59.7676158,32.2370692 62,29.0788802 62,25.5 C62,21.3335687 58.9936509,17.8419214 54.9993447,17.1317927 C54.9997815,17.0878873 55,17.043956 55,17 C55,9.8202983 49.1797017,4 42,4 C40.88665,4 39.7913187,4.1402054 38.7332399,4.4141283 C35.7075752,1.5997501 31.7292699,0 27.5,0 C20.0165179,0 13.5501906,5.0215585 11.5964041,12.0887265 C6.16253963,12.7801975 2,17.4229145 2,23 C2,23.0650369 2.00056442,23.1299421 2.00168863,23.1947107 C2.62261722,22.7462892 3.30808111,22.3810606 4.04296604,22.1160485 C4.46899852,17.7554279 8.01363455,14.2822893 12.4524271,14.0163526 L13.1997816,13.9715771 L13.3672767,13.2418586 C14.8667055,6.7093618 20.7069704,2 27.5,2 C31.3956386,2 35.044635,3.5419858 37.7464648,6.2403723 L38.1727203,6.6660847 L38.748308,6.4882542 C39.791916,6.1658266 40.8842271,6 42,6 C48.0751322,6 53,10.9248678 53,17 C53,17.3119875 52.987037,17.6222831 52.9612649,17.930385 L52.8759413,18.9504145 L53.8976827,19.0119343 C57.3161904,19.2177655 60,22.0580391 60,25.5 C60,28.2370496 58.2926407,30.6524777 55.7702856,31.5928042 C55.1696992,31.8706525 54.5949988,32 54,32 L37.4854293,32 C37.4406667,32.6947255 37.2937098,33.3674972 37.0576179,34 L37.0576179,34 Z M36,31.546875 C36,33.8935615 34.5190821,35.9567083 32.4200214,36.68087 C31.9304433,36.890499 31.4014122,37 30.8588362,37 L6.89978448,37 C3.06937071,37 0,33.8911337 0,30.0625 C0,26.6425651 2.45592246,23.7761607 5.71334243,23.2217739 C6.98855088,18.9870229 10.8745864,16 15.362069,16 C17.872081,16 20.2376866,16.9328491 22.065408,18.5791367 C22.6501343,18.443989 23.2518404,18.375 23.862069,18.375 C28.2195635,18.375 31.7623532,21.8811633 31.892828,26.2502928 C34.2606448,26.8361397 36,28.9959778 36,31.546875 L36,31.546875 Z M30.8588362,35 C31.1295304,35 31.3908654,34.9459078 31.6991942,34.8166439 C33.0621533,34.3446906 34,33.0381256 34,31.546875 C34,29.7154899 32.5944173,28.2088218 30.8109323,28.1000549 L29.7911044,28.0378601 L29.8751976,27.0196041 C29.8894042,26.8475809 29.8965517,26.6742892 29.8965517,26.5 C29.8965517,23.1144142 27.1919396,20.375 23.862069,20.375 C23.2507694,20.375 22.6528086,20.4669461 22.0815128,20.6457218 L21.5000386,20.8276826 L21.0716993,20.3943845 C19.5647093,18.8699483 17.5321941,18 15.362069,18 C11.5769625,18 8.31880911,20.6610543 7.48129071,24.3567858 L7.31547315,25.0884917 L6.56659146,25.133936 C4.01146192,25.2889886 2,27.4445029 2,30.0625 C2,32.7922477 4.17970463,35 6.86206897,35 C6.8681575,34.9999962 14.8670799,34.9999962 30.8588362,35 L30.8588362,35 Z"></path>
                </g>
            </g>
        </g>
    </g>
</svg>