<?xml version="1.0" encoding="UTF-8"?>
<svg width="20px" height="20px" viewBox="0 0 20 20" version="1.1" xmlns="http://www.w3.org/2000/svg" xmlns:xlink="http://www.w3.org/1999/xlink">
    <!-- Generator: Sketch 3.7.2 (28276) - http://www.bohemiancoding.com/sketch -->
    <title>Shape</title>
    <desc>Created with Sketch.</desc>
    <defs></defs>
    <g id="Page-1" stroke="none" stroke-width="1" fill="none" fill-rule="evenodd">
        <g id="sun" fill="#FCD33B">
            <path d="M9.529,15 L9.529,15 C6.491,15 4.029,12.538 4.029,9.5 C4.029,6.462 6.491,4 9.529,4 C12.567,4 15.029,6.462 15.029,9.5 C15.029,12.538 12.567,15 9.529,15 L9.529,15 Z M9.529,14 C12.014,14 14.029,11.985 14.029,9.5 C14.029,7.015 12.014,5 9.529,5 C7.044,5 5.029,7.015 5.029,9.5 C5.029,11.985 7.044,14 9.529,14 L9.529,14 L9.529,14 Z M9.529,8.8817842e-16 C9.253,8.8817842e-16 9.029,0.216 9.029,0.495 L9.029,2.504 C9.029,2.778 9.261,2.999 9.529,2.999 C9.805,2.999 10.029,2.783 10.029,2.504 L10.029,0.495 C10.029,0.221 9.797,0 9.529,0 L9.529,0 L9.529,8.8817842e-16 Z M16.267,2.791 C16.072,2.596 15.761,2.59 15.563,2.788 L14.142,4.209 C13.949,4.402 13.956,4.723 14.145,4.913 C14.34,5.108 14.651,5.114 14.849,4.916 L16.27,3.495 C16.463,3.302 16.456,2.981 16.267,2.791 L16.267,2.791 L16.267,2.791 Z M19.058,9.529 C19.058,9.253 18.842,9.029 18.563,9.029 L16.554,9.029 C16.28,9.029 16.059,9.261 16.059,9.529 C16.059,9.805 16.275,10.029 16.554,10.029 L18.563,10.029 C18.837,10.029 19.058,9.797 19.058,9.529 L19.058,9.529 L19.058,9.529 Z M16.267,16.267 C16.462,16.072 16.468,15.761 16.27,15.563 L14.849,14.142 C14.656,13.949 14.335,13.956 14.145,14.145 C13.95,14.34 13.944,14.651 14.142,14.849 L15.563,16.27 C15.756,16.463 16.077,16.456 16.267,16.267 L16.267,16.267 L16.267,16.267 Z M9.529,19.058 C9.805,19.058 10.029,18.842 10.029,18.563 L10.029,16.554 C10.029,16.28 9.797,16.059 9.529,16.059 C9.253,16.059 9.029,16.275 9.029,16.554 L9.029,18.563 C9.029,18.837 9.261,19.058 9.529,19.058 L9.529,19.058 L9.529,19.058 Z M2.791,16.267 C2.986,16.462 3.297,16.468 3.495,16.27 L4.916,14.849 C5.109,14.656 5.102,14.335 4.913,14.145 C4.718,13.95 4.407,13.944 4.209,14.142 L2.788,15.563 C2.595,15.756 2.602,16.077 2.791,16.267 L2.791,16.267 L2.791,16.267 Z M8.8817842e-16,9.529 C8.8817842e-16,9.805 0.216,10.029 0.495,10.029 L2.504,10.029 C2.778,10.029 2.999,9.797 2.999,9.529 C2.999,9.253 2.783,9.029 2.504,9.029 L0.495,9.029 C0.221,9.029 0,9.261 0,9.529 L0,9.529 L8.8817842e-16,9.529 Z M2.791,2.791 C2.596,2.986 2.59,3.297 2.788,3.495 L4.209,4.916 C4.402,5.109 4.723,5.102 4.913,4.913 C5.108,4.718 5.114,4.407 4.916,4.209 L3.495,2.788 C3.302,2.595 2.981,2.602 2.791,2.791 L2.791,2.791 L2.791,2.791 Z" id="Shape"></path>
        </g>
    </g>
</svg>