<?xml version="1.0" encoding="UTF-8"?>
<svg width="20px" height="13px" viewBox="0 0 20 13" version="1.1" xmlns="http://www.w3.org/2000/svg" xmlns:xlink="http://www.w3.org/1999/xlink">
    <!-- Generator: Sketch 3.7.2 (28276) - http://www.bohemiancoding.com/sketch -->
    <title>sunrise_arrow</title>
    <desc>Created with Sketch.</desc>
    <defs></defs>
    <g id="Page-1" stroke="none" stroke-width="1" fill="none" fill-rule="evenodd">
        <g id="sunrise_arrow" fill="#e99269">
            <path d="M6.612,10 L4.051,10 C4.036,9.835 4.029,9.669 4.029,9.5 C4.029,6.462 6.491,4 9.529,4 C12.567,4 15.029,6.462 15.029,9.5 C15.029,9.669 15.021,9.835 15.007,10 L15.007,10 L12.446,10 L9.529,7.5 L6.612,10 L6.612,10 Z M9.529,0 C9.253,0 9.029,0.216 9.029,0.495 L9.029,2.504 C9.029,2.778 9.261,2.999 9.529,2.999 C9.805,2.999 10.029,2.783 10.029,2.504 L10.029,0.495 C10.029,0.221 9.797,0 9.529,0 L9.529,0 L9.529,0 L9.529,0 Z M16.267,2.791 C16.072,2.596 15.761,2.59 15.563,2.788 L14.142,4.209 C13.949,4.402 13.956,4.723 14.145,4.913 C14.34,5.108 14.651,5.114 14.849,4.916 L16.27,3.495 C16.463,3.302 16.456,2.981 16.267,2.791 L16.267,2.791 L16.267,2.791 L16.267,2.791 Z M19.058,9.529 C19.058,9.253 18.842,9.029 18.563,9.029 L16.554,9.029 C16.28,9.029 16.059,9.261 16.059,9.529 C16.059,9.805 16.275,10.029 16.554,10.029 L18.563,10.029 C18.837,10.029 19.058,9.797 19.058,9.529 L19.058,9.529 L19.058,9.529 L19.058,9.529 Z M8.8817842e-16,9.529 C8.8817842e-16,9.805 0.216,10.029 0.495,10.029 L2.504,10.029 C2.778,10.029 2.999,9.797 2.999,9.529 C2.999,9.253 2.783,9.029 2.504,9.029 L0.495,9.029 C0.221,9.029 0,9.261 0,9.529 L0,9.529 L0,9.529 L8.8817842e-16,9.529 Z M0.566,12 C0.285,12 0.058,12.232 0.058,12.5 C0.058,12.776 0.285,13 0.566,13 L6.641,13 L9.558,10.5 L12.475,13 L18.55,13 C18.831,13 19.058,12.768 19.058,12.5 C19.058,12.224 18.831,12 18.55,12 L13.058,12 L9.558,9 L6.058,12 L0.566,12 L0.566,12 Z M2.791,2.791 C2.596,2.986 2.59,3.297 2.788,3.495 L4.209,4.916 C4.402,5.109 4.723,5.102 4.913,4.913 C5.108,4.718 5.114,4.407 4.916,4.209 L3.495,2.788 C3.302,2.595 2.981,2.602 2.791,2.791 L2.791,2.791 L2.791,2.791 L2.791,2.791 Z" id="Shape"></path>
        </g>
    </g>
</svg>