<?xml version="1.0" standalone="no"?>
<!DOCTYPE svg PUBLIC "-//W3C//DTD SVG 20010904//EN"
 "http://www.w3.org/TR/2001/REC-SVG-20010904/DTD/svg10.dtd">
<svg version="1.0" xmlns="http://www.w3.org/2000/svg"
 width="700.000000pt" height="700.000000pt" viewBox="0 0 700.000000 700.000000"
 preserveAspectRatio="xMidYMid meet">
<metadata>
Created by potrace 1.11, written by Peter Selinger 2001-2013
</metadata>
<g transform="translate(0.000000,700.000000) scale(0.100000,-0.100000)"
fill="#000000" stroke="none">
<path d="M3255 6980 c-22 -11 -51 -37 -65 -57 l-25 -37 -3 -375 c-2 -207 0
-396 3 -420 8 -52 74 -125 125 -136 54 -12 117 3 157 38 63 55 63 56 63 484 0
359 -1 391 -19 423 -46 86 -153 122 -236 80z"/>
<path d="M1044 6063 c-44 -16 -80 -46 -101 -87 -21 -40 -20 -128 1 -158 35
-50 551 -558 581 -573 71 -33 169 -5 214 61 29 42 38 117 20 162 -14 32 -534
563 -574 585 -36 19 -100 24 -141 10z"/>
<path d="M5516 6065 c-21 -7 -49 -24 -63 -37 -72 -67 -515 -516 -528 -534 -39
-58 -26 -160 27 -211 58 -56 134 -69 198 -34 34 18 554 533 573 567 46 83 8
198 -81 243 -34 18 -84 20 -126 6z"/>
<path d="M3155 5593 c-16 -2 -58 -8 -93 -13 -34 -6 -81 -13 -105 -16 -104 -15
-324 -90 -469 -161 -269 -131 -524 -344 -700 -584 -185 -253 -295 -510 -350
-824 -23 -129 -31 -398 -15 -543 11 -109 57 -314 78 -354 5 -10 9 -24 9 -31 0
-24 78 -207 126 -296 197 -366 513 -666 888 -842 115 -54 329 -123 441 -142
50 -9 106 -19 125 -22 59 -11 392 -14 445 -5 28 5 70 11 95 14 48 6 81 12 108
20 9 3 35 8 56 12 63 9 284 90 384 139 276 135 522 341 707 590 172 233 291
508 345 800 34 185 34 476 1 667 -19 110 -64 280 -90 343 -130 309 -252 497
-451 695 -203 203 -455 360 -731 456 -86 30 -247 71 -314 80 -27 3 -59 8 -70
11 -24 6 -377 11 -420 6z m395 -356 c43 -8 145 -28 155 -31 6 -2 24 -6 40 -10
120 -31 302 -109 415 -179 566 -352 848 -1008 715 -1667 -46 -234 -165 -479
-325 -675 -54 -66 -191 -202 -237 -235 -271 -196 -494 -289 -780 -327 -74 -10
-321 -10 -393 -1 -272 35 -530 141 -753 309 -146 110 -269 240 -365 387 -116
177 -208 405 -238 592 -4 25 -9 56 -11 70 -12 74 -10 343 4 430 79 516 388
946 849 1180 115 59 288 120 384 136 19 3 69 12 110 19 70 11 368 13 430 2z"/>
<path d="M125 3833 c-35 -9 -85 -53 -106 -95 -46 -89 5 -211 100 -239 24 -7
171 -9 428 -7 l391 3 39 31 c67 54 90 132 59 205 -17 40 -61 84 -98 98 -27 10
-773 14 -813 4z"/>
<path d="M5715 3817 c-41 -23 -81 -74 -91 -114 -19 -76 40 -182 114 -203 25
-8 167 -10 429 -8 l391 3 38 30 c20 17 45 46 55 65 40 73 11 175 -62 222 l-42
27 -396 1 c-393 0 -396 0 -436 -23z"/>
<path d="M1527 2087 c-33 -14 -563 -541 -583 -579 -18 -34 -20 -104 -4 -143
35 -89 141 -134 226 -95 46 20 572 544 591 587 61 139 -91 290 -230 230z"/>
<path d="M5005 2086 c-37 -17 -80 -62 -94 -99 -14 -37 -13 -95 2 -130 14 -33
541 -563 579 -583 35 -18 93 -20 139 -5 93 30 141 151 95 239 -7 14 -136 148
-287 299 -282 282 -296 293 -374 293 -16 -1 -43 -7 -60 -14z"/>
<path d="M3271 1366 c-42 -15 -97 -76 -105 -118 -10 -49 -7 -774 3 -801 16
-42 68 -93 110 -107 84 -27 184 17 217 97 17 40 20 766 4 824 -12 42 -51 82
-102 103 -44 19 -80 19 -127 2z"/>
</g>
</svg>
