<?xml version="1.0" encoding="UTF-8"?>
<svg width="72px" height="72px" viewBox="0 0 72 72" version="1.1" xmlns="http://www.w3.org/2000/svg" xmlns:xlink="http://www.w3.org/1999/xlink">
    <!-- Generator: Sketch 3.7.2 (28276) - http://www.bohemiancoding.com/sketch -->
    <title>Shape</title>
    <desc>Created with Sketch.</desc>
    <defs></defs>
    <g id="Page-1" stroke="none" stroke-width="1" fill="none" fill-rule="evenodd">
        <g id="noun_Magnifying-Glass_1377017" fill="#BF3B3B">
            <path d="M70.993,66.411 L48.702,44.12 C52.576,39.202 54.524,33.262 54.524,27.317 C54.524,20.362 51.865,13.403 46.558,8.097 C41.253,2.792 34.298,0.131 27.345,0.131 C20.381,0.13 13.41,2.782 8.096,8.097 C2.786,13.406 0.13,20.369 0.13,27.328 C0.13,34.286 2.786,41.249 8.096,46.559 C13.402,51.866 20.361,54.525 27.317,54.525 C33.185,54.525 39.047,52.621 43.929,48.845 L44.119,48.702 L44.944,49.527 L66.41,70.993 C66.993,71.576 67.762,71.87 68.526,71.869 C69.291,71.87 70.06,71.576 70.643,70.992 L70.991,70.644 C71.575,70.061 71.869,69.291 71.868,68.527 C71.87,67.763 71.576,66.994 70.993,66.411 L70.993,66.411 Z M42.985,42.985 C38.663,47.308 32.993,49.472 27.327,49.471 C21.661,49.472 15.992,47.308 11.669,42.985 C7.346,38.663 5.183,32.993 5.183,27.327 C5.183,21.661 7.346,15.992 11.669,11.669 C15.992,7.346 21.662,5.183 27.327,5.183 C32.993,5.183 38.662,7.346 42.985,11.669 C47.308,15.992 49.472,21.662 49.471,27.327 C49.473,32.993 47.309,38.663 42.985,42.985 L42.985,42.985 Z" id="Shape"></path>
        </g>
    </g>
</svg>