<?xml version="1.0" encoding="UTF-8"?>
<svg width="19px" height="16px" viewBox="0 0 19 16" version="1.1" xmlns="http://www.w3.org/2000/svg" xmlns:xlink="http://www.w3.org/1999/xlink">
    <!-- Generator: Sketch 3.7.2 (28276) - http://www.bohemiancoding.com/sketch -->
    <title>sunset_arrow</title>
    <desc>Created with Sketch.</desc>
    <defs></defs>
    <g id="Page-1" stroke="none" stroke-width="1" fill="none" fill-rule="evenodd">
        <g id="sunset_arrow" transform="translate(-1.000000, 0.000000)" fill="#d6737b">
            <path d="M15.978,10 C15.993,9.835 16,9.669 16,9.5 C16,6.462 13.538,4 10.5,4 C7.462,4 5,6.462 5,9.5 C5,9.669 5.008,9.835 5.022,10 L15.977,10 L15.978,10 Z M10.5,8.8817842e-16 C10.224,8.8817842e-16 10,0.216 10,0.495 L10,2.504 C10,2.778 10.232,2.999 10.5,2.999 C10.776,2.999 11,2.783 11,2.504 L11,0.495 C11,0.221 10.768,0 10.5,0 L10.5,0 L10.5,0 L10.5,8.8817842e-16 Z M17.238,2.791 C17.043,2.596 16.732,2.59 16.534,2.788 L15.113,4.209 C14.92,4.402 14.927,4.723 15.116,4.913 C15.311,5.108 15.622,5.114 15.82,4.916 L17.241,3.495 C17.434,3.302 17.427,2.981 17.238,2.791 L17.238,2.791 L17.238,2.791 L17.238,2.791 Z M20.029,9.529 C20.029,9.253 19.813,9.029 19.534,9.029 L17.525,9.029 C17.251,9.029 17.03,9.261 17.03,9.529 C17.03,9.805 17.246,10.029 17.525,10.029 L19.534,10.029 C19.808,10.029 20.029,9.797 20.029,9.529 L20.029,9.529 L20.029,9.529 L20.029,9.529 Z M0.971,9.529 C0.971,9.805 1.187,10.029 1.466,10.029 L3.475,10.029 C3.749,10.029 3.97,9.797 3.97,9.529 C3.97,9.253 3.754,9.029 3.475,9.029 L1.466,9.029 C1.192,9.029 0.971,9.261 0.971,9.529 L0.971,9.529 L0.971,9.529 L0.971,9.529 Z M3.762,2.791 C3.567,2.986 3.561,3.297 3.759,3.495 L5.18,4.916 C5.373,5.109 5.694,5.102 5.884,4.913 C6.079,4.718 6.085,4.407 5.887,4.209 L4.466,2.788 C4.273,2.595 3.952,2.602 3.762,2.791 L3.762,2.791 L3.762,2.791 L3.762,2.791 Z M1.537,13 C1.256,13 1.029,12.768 1.029,12.5 C1.029,12.224 1.256,12 1.537,12 L7.612,12 L10.529,14.5 L13.446,12 L19.521,12 C19.802,12 20.029,12.232 20.029,12.5 C20.029,12.776 19.802,13 19.521,13 L14.029,13 L10.529,16 L7.029,13 L1.537,13 L1.537,13 Z" id="Shape"></path>
        </g>
    </g>
</svg>