<?xml version="1.0" encoding="UTF-8"?>
<svg width="31px" height="82px" viewBox="0 0 31 82" version="1.1" xmlns="http://www.w3.org/2000/svg" xmlns:xlink="http://www.w3.org/1999/xlink">
    <!-- Generator: Sketch 3.7.2 (28276) - http://www.bohemiancoding.com/sketch -->
    <title>noun_Thermometer_2906295</title>
    <desc>Created with Sketch.</desc>
    <defs></defs>
    <g id="Page-1" stroke="none" stroke-width="1" fill="none" fill-rule="evenodd">
        <g id="noun_Thermometer_2906295">
            <path d="M22.667,54.03418 L22.667,7.6665 C22.6623284,3.71172167 19.4550361,0.508215664 15.500255,0.508215664 C11.5454739,0.508215664 8.33818155,3.71172167 8.33351,7.6665 L8.33351,54.03516 C2.51138816,57.2966506 -0.374781315,64.0775437 1.31082337,70.5345678 C2.99642805,76.991592 8.8287592,81.4965224 15.5021709,81.4960568 C22.1755826,81.4955913 28.0072851,76.989847 29.6919888,70.5325878 C31.3766925,64.0753285 28.4895769,57.2948382 22.667,54.03416 L22.667,54.03418 Z M15.5,80.5 C9.2286262,80.4993428 3.76237139,76.2308407 2.24150341,70.1466735 C0.72063543,64.0625063 3.53543542,57.7239771 9.06885,54.77246 C9.23181348,54.685487 9.33356845,54.5157698 9.3335,54.33105 L9.3335,7.6665 C9.33783311,4.26376711 12.0975093,1.50760286 15.500245,1.50760286 C18.9029807,1.50760286 21.6626569,4.26376711 21.66699,7.6665 L21.66699,54.33008 C21.6669186,54.514798 21.7686749,54.6845137 21.93164,54.77148 C27.4651471,57.7232323 30.2799154,64.0619902 28.7589462,70.1463303 C27.2379771,76.2306704 21.7715661,80.4992912 15.5,80.5 L15.5,80.5 Z" id="Shape" fill="#D72525"></path>
            <path d="M19,57.64221 L19,11.5 C19,9.56700338 17.4329966,8 15.5,8 C13.5670034,8 12,9.56700338 12,11.5 L12,57.64221 C7.46904535,59.3351213 4.79922975,64.0282619 5.65939611,68.7880531 C6.51956246,73.5478444 10.6631106,77.009707 15.5,77.009707 C20.3368894,77.009707 24.4804375,73.5478444 25.3406039,68.7880531 C26.2007702,64.0282619 23.5309547,59.3351213 19,57.64221 L19,57.64221 Z" id="Shape" fill="#D82525"></path>
        </g>
    </g>
</svg>